<?xml version="1.0" encoding="utf-8"?>
<!-- Generator: Adobe Illustrator 26.0.0, SVG Export Plug-In . SVG Version: 6.00 Build 0)  -->
<svg version="1.1" id="af4bf8c1-f695-41a8-b966-3d2ea2ededf7"
	 xmlns="http://www.w3.org/2000/svg" xmlns:xlink="http://www.w3.org/1999/xlink" x="0px" y="0px" viewBox="0 0 683.6 668.3"
	 style="enable-background:new 0 0 683.6 668.3;" xml:space="preserve">
<style type="text/css">
	.st0{fill:#FFFFFF;}
</style>
<polygon class="st0" points="147.2,2.7 147.3,38.4 59.3,616.8 157.4,616.6 157.5,663.1 4.9,663.4 4.8,613.9 90.6,49.4 0.1,49.5 0,3 
	"/>
<path class="st0" d="M181.7,102.2c-0.1-30.7,3.1-44.6,12.9-62.4C208.8,16,241.4,0.1,276.3,0c36-0.1,65.5,14.7,77.5,38.5
	c6.6,11.9,9.9,30.7,10,60.4l1.1,469.3c0.2,66.4-30.3,100.1-90.3,100.2c-39.3,0.1-76.4-20.6-85.2-48.3c-4.4-12.9-6.6-28.7-6.7-55.4
	L181.7,102.2z M237.4,578.3c0.1,33.7,11,48.5,36.1,48.5c24,0,34.8-15.9,34.8-52.6L307.1,97c-0.1-39.6-6.7-49.5-35-49.4
	c-28.4,0.1-36,12-35.8,59.5L237.4,578.3z"/>
<rect x="429.8" y="3.6" transform="matrix(1 -2.418420e-03 2.418420e-03 1 -0.8059 1.1076)" class="st0" width="55.6" height="660.4"/>
<polygon class="st0" points="680.9,3.2 681,52.7 607.9,52.8 608.5,301.3 682.7,301.2 682.8,347.7 608.6,347.9 609.3,616.2 
	683.5,616 683.6,663.6 551.6,663.8 550,3.4 "/>
</svg>
